<svg width="32" height="32" viewBox="0 0 32 32" fill="none" xmlns="http://www.w3.org/2000/svg">
<g clip-path="url(#clip0_509_1924)">
<path d="M12.0001 14.6667C14.9456 14.6667 17.3334 12.2789 17.3334 9.33333C17.3334 6.38781 14.9456 4 12.0001 4C9.05456 4 6.66675 6.38781 6.66675 9.33333C6.66675 12.2789 9.05456 14.6667 12.0001 14.6667Z" stroke="#FF1863" stroke-width="1.5" stroke-linecap="round" stroke-linejoin="round"/>
<path d="M4 28V25.3333C4 23.9188 4.5619 22.5623 5.5621 21.5621C6.56229 20.5619 7.91885 20 9.33333 20H14.6667C16.0812 20 17.4377 20.5619 18.4379 21.5621C19.4381 22.5623 20 23.9188 20 25.3333V28" stroke="#FF1863" stroke-width="1.5" stroke-linecap="round" stroke-linejoin="round"/>
<path d="M21.3333 4.17334C22.4805 4.46707 23.4973 5.13427 24.2234 6.06975C24.9496 7.00523 25.3437 8.15578 25.3437 9.34001C25.3437 10.5242 24.9496 11.6748 24.2234 12.6103C23.4973 13.5457 22.4805 14.2129 21.3333 14.5067" stroke="#FF1863" stroke-width="1.5" stroke-linecap="round" stroke-linejoin="round"/>
<path d="M28 27.9999V25.3333C27.9932 24.1562 27.5972 23.0143 26.8737 22.0858C26.1502 21.1573 25.1398 20.4942 24 20.2" stroke="#FF1863" stroke-width="1.5" stroke-linecap="round" stroke-linejoin="round"/>
</g>
<defs>
<clipPath id="clip0_509_1924">
<rect width="32" height="32" fill="white"/>
</clipPath>
</defs>
</svg>
