<svg width="16" height="16" viewBox="0 0 16 16" fill="none" xmlns="http://www.w3.org/2000/svg">
<mask id="path-1-inside-1_35_2476" fill="white">
<path fill-rule="evenodd" clip-rule="evenodd" d="M8 16C12.4183 16 16 12.4183 16 8C16 3.58172 12.4183 0 8 0C3.58172 0 0 3.58172 0 8C0 12.4183 3.58172 16 8 16ZM7.92678 6.72679C8.48439 7.21103 9.10069 7.5632 9.77569 7.76864V4.29826H6.28331V7.7613C6.89227 7.58521 7.44254 7.24038 7.92678 6.72679ZM8.96863 4.89255V6.68277C8.72651 6.53603 8.52107 6.35994 8.34499 6.15451C8.55776 5.78033 8.69716 5.35478 8.74852 4.89255H8.96863ZM7.61863 5.87571C7.4939 6.0738 7.31782 6.28657 7.09037 6.49935V4.89255H7.92678C7.8901 5.2594 7.78738 5.58956 7.61863 5.87571ZM8.19091 10.4466C8.61646 10.9309 9.15205 11.2684 9.77569 11.4591V7.99608H6.28331V8.59037H7.13439C6.56945 9.57353 6.28331 10.4026 6.28331 11.0703V11.3711H7.09037V11.0703C7.09037 10.6374 7.24445 10.0871 7.5526 9.44146C7.70667 9.80831 7.91945 10.1458 8.19091 10.4466ZM8.96863 8.59037V10.1972C8.74118 9.97706 8.5651 9.77162 8.44771 9.57353C8.27162 9.28738 8.1689 8.95722 8.13222 8.59037H8.96863Z"/>
</mask>
<path d="M9.77569 7.76864L9.48453 8.72531L10.7757 9.11827V7.76864H9.77569ZM7.92678 6.72679L8.58247 5.97176L7.8577 5.34236L7.19919 6.04078L7.92678 6.72679ZM9.77569 4.29826H10.7757V3.29826H9.77569V4.29826ZM6.28331 4.29826V3.29826H5.28331V4.29826H6.28331ZM6.28331 7.7613H5.28331V9.09142L6.56108 8.72195L6.28331 7.7613ZM8.96863 6.68277L8.45033 7.53797L9.96863 8.45815V6.68277H8.96863ZM8.96863 4.89255H9.96863V3.89255H8.96863V4.89255ZM8.34499 6.15451L7.4757 5.66021L7.12814 6.27144L7.58573 6.8053L8.34499 6.15451ZM8.74852 4.89255V3.89255H7.85348L7.75464 4.78212L8.74852 4.89255ZM7.09037 6.49935H6.09037V8.80418L7.77353 7.22962L7.09037 6.49935ZM7.61863 5.87571L8.46486 6.40852L8.47261 6.39622L8.48 6.38369L7.61863 5.87571ZM7.09037 4.89255V3.89255H6.09037V4.89255H7.09037ZM7.92678 4.89255L8.92182 4.99206L9.03177 3.89255H7.92678V4.89255ZM9.77569 11.4591L9.48319 12.4154L10.7757 12.8107V11.4591H9.77569ZM8.19091 10.4466L8.94214 9.78645L8.9333 9.77666L8.19091 10.4466ZM9.77569 7.99608H10.7757V6.99608H9.77569V7.99608ZM6.28331 7.99608V6.99608H5.28331V7.99608H6.28331ZM6.28331 8.59037H5.28331V9.59037H6.28331V8.59037ZM7.13439 8.59037L8.00144 9.0886L8.86236 7.59037H7.13439V8.59037ZM6.28331 11.3711H5.28331V12.3711H6.28331V11.3711ZM7.09037 11.3711V12.3711H8.09037V11.3711H7.09037ZM7.5526 9.44146L8.47458 9.05423L7.61086 6.99775L6.65012 9.01073L7.5526 9.44146ZM8.96863 10.1972L8.2732 10.9158L9.96863 12.5565V10.1972H8.96863ZM8.96863 8.59037H9.96863V7.59037H8.96863V8.59037ZM8.44771 9.57353L9.308 9.06372L9.30374 9.05654L9.29936 9.04943L8.44771 9.57353ZM8.13222 8.59037V7.59037H7.02723L7.13718 8.68988L8.13222 8.59037ZM15 8C15 11.866 11.866 15 8 15V17C12.9706 17 17 12.9706 17 8H15ZM8 1C11.866 1 15 4.13401 15 8H17C17 3.02944 12.9706 -1 8 -1V1ZM1 8C1 4.13401 4.13401 1 8 1V-1C3.02944 -1 -1 3.02944 -1 8H1ZM8 15C4.13401 15 1 11.866 1 8H-1C-1 12.9706 3.02944 17 8 17V15ZM10.0669 6.81196C9.53814 6.65105 9.04394 6.37251 8.58247 5.97176L7.2711 7.48182C7.92484 8.04955 8.66325 8.47536 9.48453 8.72531L10.0669 6.81196ZM8.77569 4.29826V7.76864H10.7757V4.29826H8.77569ZM6.28331 5.29826H9.77569V3.29826H6.28331V5.29826ZM7.28331 7.7613V4.29826H5.28331V7.7613H7.28331ZM7.19919 6.04078C6.82486 6.4378 6.42565 6.67917 6.00553 6.80065L6.56108 8.72195C7.3589 8.49125 8.06023 8.04296 8.65437 7.4128L7.19919 6.04078ZM9.96863 6.68277V4.89255H7.96863V6.68277H9.96863ZM7.58573 6.8053C7.83016 7.09047 8.11674 7.33579 8.45033 7.53797L9.48693 5.82757C9.33628 5.73627 9.21199 5.62942 9.10425 5.50372L7.58573 6.8053ZM7.75464 4.78212C7.7179 5.11275 7.61957 5.4072 7.4757 5.66021L9.21428 6.64881C9.49595 6.15345 9.67642 5.59682 9.7424 5.00299L7.75464 4.78212ZM8.96863 3.89255H8.74852V5.89255H8.96863V3.89255ZM7.77353 7.22962C8.05382 6.96741 8.28786 6.68964 8.46486 6.40852L6.7724 5.34289C6.69994 5.45797 6.58181 5.60574 6.40721 5.76907L7.77353 7.22962ZM6.09037 4.89255V6.49935H8.09037V4.89255H6.09037ZM7.92678 3.89255H7.09037V5.89255H7.92678V3.89255ZM8.48 6.38369C8.73117 5.95779 8.87254 5.48489 8.92182 4.99206L6.93175 4.79305C6.90766 5.03392 6.84359 5.22134 6.75726 5.36772L8.48 6.38369ZM10.0682 10.5029C9.6134 10.3637 9.23939 10.1248 8.94208 9.78651L7.43975 11.1067C7.99352 11.7369 8.6907 12.173 9.48319 12.4154L10.0682 10.5029ZM8.77569 7.99608V11.4591H10.7757V7.99608H8.77569ZM6.28331 8.99608H9.77569V6.99608H6.28331V8.99608ZM7.28331 8.59037V7.99608H5.28331V8.59037H7.28331ZM7.13439 7.59037H6.28331V9.59037H7.13439V7.59037ZM7.28331 11.0703C7.28331 10.6616 7.46898 10.0152 8.00144 9.0886L6.26735 8.09215C5.66991 9.13184 5.28331 10.1436 5.28331 11.0703H7.28331ZM7.28331 11.3711V11.0703H5.28331V11.3711H7.28331ZM7.09037 10.3711H6.28331V12.3711H7.09037V10.3711ZM6.09037 11.0703V11.3711H8.09037V11.0703H6.09037ZM6.65012 9.01073C6.3126 9.71792 6.09037 10.4244 6.09037 11.0703H8.09037C8.09037 10.8504 8.1763 10.4563 8.45508 9.87219L6.65012 9.01073ZM8.9333 9.77666C8.73802 9.56025 8.5856 9.31857 8.47458 9.05423L6.63062 9.82869C6.82774 10.298 7.10087 10.7314 7.44852 11.1166L8.9333 9.77666ZM9.96863 10.1972V8.59037H7.96863V10.1972H9.96863ZM7.58741 10.0833C7.76886 10.3895 8.01482 10.6657 8.2732 10.9158L9.66405 9.47857C9.46754 9.28839 9.36133 9.15372 9.308 9.06372L7.58741 10.0833ZM7.13718 8.68988C7.18646 9.18273 7.32867 9.66314 7.59605 10.0976L9.29936 9.04943C9.21457 8.91163 9.15134 8.73171 9.12725 8.49087L7.13718 8.68988ZM8.96863 7.59037H8.13222V9.59037H8.96863V7.59037Z" fill="black" mask="url(#path-1-inside-1_35_2476)"/>
</svg>
