<svg width="52" height="64" viewBox="0 0 52 64" fill="none" xmlns="http://www.w3.org/2000/svg">
<path d="M42.5148 5.92315C39.5177 3.46918 36.0134 1.71093 32.2546 0.775227C28.4958 -0.16048 24.5762 -0.250324 20.7784 0.512176C15.8953 1.51331 11.403 3.897 7.83639 7.37931C4.26983 10.8616 1.77945 15.2958 0.661889 20.1535C-0.455668 25.0113 -0.153288 30.0879 1.53301 34.7787C3.21931 39.4694 6.21844 43.5766 10.1732 46.6109C14.6884 49.9156 18.5327 54.0502 21.5007 58.7936L23.5229 62.1563C23.7798 62.5834 24.1427 62.9368 24.5766 63.1822C25.0104 63.4275 25.5003 63.5565 25.9987 63.5565C26.4971 63.5565 26.9871 63.4275 27.4209 63.1822C27.8547 62.9368 28.2177 62.5834 28.4746 62.1563L30.413 58.9264C32.9975 54.3832 36.5215 50.4436 40.7496 47.3707C44.065 45.0897 46.8049 42.0694 48.7532 38.5483C50.7016 35.0271 51.805 31.1013 51.9764 27.0807C52.1479 23.0601 51.3827 19.0547 49.7412 15.3805C48.0997 11.7062 45.6268 8.46368 42.5177 5.90871L42.5148 5.92315ZM25.9958 37.5599C23.7103 37.5599 21.4762 36.8821 19.5758 35.6124C17.6755 34.3426 16.1944 32.5379 15.3197 30.4263C14.4451 28.3148 14.2163 25.9913 14.6621 23.7497C15.108 21.5081 16.2086 19.4491 17.8247 17.833C19.4408 16.2169 21.4998 15.1163 23.7414 14.6704C25.983 14.2246 28.3065 14.4534 30.418 15.328C32.5296 16.2027 34.3343 17.6838 35.6041 19.5841C36.8739 21.4844 37.5516 23.7186 37.5516 26.0041C37.5516 29.0689 36.3341 32.0082 34.167 34.1753C31.9999 36.3424 29.0606 37.5599 25.9958 37.5599Z" fill="#FF1863"/>
</svg>
