<svg width="375" height="20" viewBox="0 0 375 20" fill="none" xmlns="http://www.w3.org/2000/svg">
<g opacity="0.3">
<path fill-rule="evenodd" clip-rule="evenodd" d="M202.5 14C204.433 14 206 12.433 206 10.5C206 8.567 204.433 7 202.5 7C200.567 7 199 8.567 199 10.5C199 12.433 200.567 14 202.5 14Z" fill="white"/>
</g>
<g opacity="0.3">
<path fill-rule="evenodd" clip-rule="evenodd" d="M187.5 14C189.433 14 191 12.433 191 10.5C191 8.567 189.433 7 187.5 7C185.567 7 184 8.567 184 10.5C184 12.433 185.567 14 187.5 14Z" fill="white"/>
</g>
<path fill-rule="evenodd" clip-rule="evenodd" d="M172.5 14C174.433 14 176 12.433 176 10.5C176 8.567 174.433 7 172.5 7C170.567 7 169 8.567 169 10.5C169 12.433 170.567 14 172.5 14Z" fill="white"/>
</svg>
