<svg width="18" height="18" viewBox="0 0 18 18" fill="none" xmlns="http://www.w3.org/2000/svg">
<g clip-path="url(#clip0_509_2392)">
<path d="M4.5 11.25H3C2.80109 11.25 2.61032 11.171 2.46967 11.0304C2.32902 10.8897 2.25 10.699 2.25 10.5V7.50004C2.25 7.30113 2.32902 7.11036 2.46967 6.96971C2.61032 6.82906 2.80109 6.75004 3 6.75004H4.5L7.125 3.37504C7.19055 3.24771 7.29949 3.14803 7.43212 3.09401C7.56475 3.03999 7.71233 3.03519 7.84819 3.08047C7.98405 3.12576 8.09923 3.21815 8.17292 3.34095C8.24661 3.46374 8.27395 3.60885 8.25 3.75004V14.25C8.27395 14.3912 8.24661 14.5363 8.17292 14.6591C8.09923 14.7819 7.98405 14.8743 7.84819 14.9196C7.71233 14.9649 7.56475 14.9601 7.43212 14.9061C7.29949 14.852 7.19055 14.7524 7.125 14.625L4.5 11.25Z" stroke="white" stroke-width="1.5" stroke-linecap="round" stroke-linejoin="round"/>
</g>
<defs>
<clipPath id="clip0_509_2392">
<rect width="18" height="18" fill="white"/>
</clipPath>
</defs>
</svg>
