<svg width="19" height="19" viewBox="0 0 19 19" fill="none" xmlns="http://www.w3.org/2000/svg">
<g clip-path="url(#clip0_42_1831)">
<path d="M15.4375 10.7445L9.50003 16.625L3.56253 10.7445C3.1709 10.3634 2.86242 9.90532 2.65651 9.39915C2.4506 8.89297 2.35173 8.34965 2.36612 7.80338C2.38051 7.25712 2.50785 6.71975 2.74012 6.22512C2.97239 5.73049 3.30456 5.2893 3.71571 4.92935C4.12686 4.5694 4.60809 4.29848 5.12909 4.13365C5.65009 3.96882 6.19958 3.91365 6.74295 3.97161C7.28632 4.02958 7.81181 4.19942 8.28631 4.47044C8.76082 4.74147 9.17406 5.10781 9.50003 5.54639C9.82742 5.11099 10.2411 4.74786 10.7153 4.47971C11.1895 4.21156 11.7139 4.04417 12.2558 3.98801C12.7976 3.93186 13.3452 3.98815 13.8643 4.15337C14.3834 4.31859 14.8628 4.58917 15.2725 4.94818C15.6822 5.30719 16.0134 5.74691 16.2454 6.23981C16.4773 6.73271 16.605 7.26818 16.6205 7.8127C16.636 8.35723 16.5389 8.8991 16.3354 9.40438C16.1318 9.90967 15.8262 10.3675 15.4375 10.7492" stroke="white" stroke-width="1.5" stroke-linecap="round" stroke-linejoin="round"/>
</g>
<defs>
<clipPath id="clip0_42_1831">
<rect width="19" height="19" fill="white"/>
</clipPath>
</defs>
</svg>
