<svg width="275" height="18" viewBox="0 0 275 18" fill="none" xmlns="http://www.w3.org/2000/svg">
<path d="M8.99708 17.3206C11.7636 17.3206 14.1211 16.3343 15.6848 14.506L13.664 12.5815C12.4371 13.9286 10.9216 14.5782 9.16548 14.5782C5.6773 14.5782 3.15138 12.1244 3.15138 8.66029C3.15138 5.19618 5.6773 2.74243 9.16548 2.74243C10.9216 2.74243 12.4371 3.39195 13.664 4.71505L15.6848 2.8146C14.1211 0.986311 11.7636 0 9.02114 0C3.84902 0 0 3.63251 0 8.66029C0 13.6881 3.84902 17.3206 8.99708 17.3206Z" fill="white"/>
<path d="M33.7129 17.3206C38.9332 17.3206 42.7822 13.664 42.7822 8.66029C42.7822 3.65657 38.9332 0 33.7129 0C28.4927 0 24.6437 3.68062 24.6437 8.66029C24.6437 13.64 28.4927 17.3206 33.7129 17.3206ZM33.7129 14.5782C30.321 14.5782 27.7951 12.1004 27.7951 8.66029C27.7951 5.22023 30.321 2.74243 33.7129 2.74243C37.1049 2.74243 39.6308 5.22023 39.6308 8.66029C39.6308 12.1004 37.1049 14.5782 33.7129 14.5782Z" fill="white"/>
<path d="M53.6147 17.08H65.5467V14.4338H56.742V0.240563H53.6147V17.08Z" fill="white"/>
<path d="M75.5332 17.08H87.4652V14.4338H78.6606V0.240563H75.5332V17.08Z" fill="white"/>
<path d="M110.175 17.08H113.446L105.845 0.240563H102.765L95.1877 17.08H98.4112L101.13 10.7291L104.281 2.04477L107.456 10.7291L110.175 17.08ZM101.13 10.7291L104.281 3.36789L107.456 10.7291L104.281 2.04477L101.13 10.7291Z" fill="white"/>
<path d="M135.038 8.32351C136.337 7.62587 137.203 6.35088 137.203 4.61882C137.203 1.94857 135.038 0.240563 130.996 0.240563H123.106V17.08H131.477C135.807 17.08 138.069 15.3961 138.069 12.5093C138.069 10.3202 136.842 8.90086 135.038 8.32351ZM130.659 2.69431C132.824 2.69431 134.051 3.46412 134.051 5.02778C134.051 6.56739 132.824 7.33719 130.659 7.33719H126.233V2.69431H130.659ZM131.285 14.6263H126.233V9.76689H131.285C133.642 9.76689 134.917 10.5126 134.917 12.1966C134.917 13.8805 133.642 14.6263 131.285 14.6263Z" fill="white"/>
<path d="M156.79 17.3206C162.011 17.3206 165.86 13.664 165.86 8.66029C165.86 3.65657 162.011 0 156.79 0C151.57 0 147.721 3.68062 147.721 8.66029C147.721 13.64 151.57 17.3206 156.79 17.3206ZM156.79 14.5782C153.398 14.5782 150.873 12.1004 150.873 8.66029C150.873 5.22023 153.398 2.74243 156.79 2.74243C160.182 2.74243 162.708 5.22023 162.708 8.66029C162.708 12.1004 160.182 14.5782 156.79 14.5782Z" fill="white"/>
<path d="M191.078 17.08L187.205 11.5471C189.49 10.657 190.789 8.78058 190.789 6.2306C190.789 2.50186 188.047 0.240563 183.62 0.240563H176.692V17.08H179.82V12.1725H183.62C183.837 12.1725 184.053 12.1725 184.27 12.1485L187.71 17.08H191.078ZM187.638 6.2306C187.638 8.34756 186.218 9.59849 183.476 9.59849H179.82V2.88676H183.476C186.218 2.88676 187.638 4.11364 187.638 6.2306Z" fill="white"/>
<path d="M214.411 17.08H217.683L210.081 0.240563H207.002L199.424 17.08H202.648L205.366 10.7291L208.517 3.36789L211.693 10.7291L214.411 17.08Z" fill="white"/>
<path d="M229.912 17.08H233.04V2.88676H238.621V0.240563H224.331V2.88676H229.912V17.08Z" fill="white"/>
<path d="M251.613 14.4579V9.815H259.744V7.24097H251.613V2.86271H260.778V0.240563H248.485V17.08H261.115V14.4579H251.613Z" fill="white"/>
<path d="M273.027 17.2484C274.11 17.2484 275 16.4064 275 15.2517C275 14.0489 274.11 13.2551 273.027 13.2551C271.945 13.2551 271.055 14.0489 271.055 15.2517C271.055 16.4064 271.945 17.2484 273.027 17.2484Z" fill="white"/>
</svg>
