<svg width="28" height="28" viewBox="0 0 28 28" fill="none" xmlns="http://www.w3.org/2000/svg">
<g clip-path="url(#clip0_43_1883)">
<path d="M27.6456 13.3306C23.7044 10.3252 18.9858 8.73614 13.999 8.73614C9.01228 8.73614 4.29365 10.3252 0.352462 13.3306C0.163501 13.4746 0.0375268 13.6887 0.00693309 13.9263C-0.0236606 14.1638 0.0393264 14.4032 0.183297 14.5921L3.47662 18.9094C3.62239 19.1002 3.83474 19.2244 4.07229 19.255C4.30985 19.2892 4.5492 19.2226 4.73816 19.0786C6.12747 18.015 7.67875 17.2034 9.34521 16.6653C9.81671 16.5123 10.0759 16.0066 9.92469 15.5333L8.81972 12.0978C12.1688 11.2448 15.8275 11.243 19.1784 12.0978L18.0734 15.5333C17.9204 16.0066 18.1814 16.5123 18.6529 16.6653C20.3175 17.2034 21.867 18.015 23.2599 19.0786C23.4183 19.1974 23.6091 19.264 23.807 19.264C23.8466 19.264 23.8862 19.2604 23.9258 19.255C24.1633 19.2226 24.3775 19.1002 24.5215 18.9112L27.8148 14.5921C27.9588 14.4032 28.0236 14.162 27.9912 13.9263C27.9606 13.6887 27.8346 13.4746 27.6456 13.3306Z" fill="white"/>
</g>
<defs>
<clipPath id="clip0_43_1883">
<rect width="27.3789" height="27.3789" fill="white" transform="scale(1.02269)"/>
</clipPath>
</defs>
</svg>
