<svg width="44" height="79" viewBox="0 0 44 79" fill="none" xmlns="http://www.w3.org/2000/svg">
<rect width="43.4858" height="79" rx="4.32096" fill="#FF1863"/>
<path d="M29.1552 21.1956V22.2542C29.1549 22.3943 29.0991 22.5286 29 22.6277C28.9008 22.7268 28.7664 22.7825 28.6262 22.7827H22.8015V28.6027C22.8013 28.7428 22.7455 28.8771 22.6463 28.9761C22.5472 29.0752 22.4128 29.131 22.2725 29.1312H21.2131C21.0728 29.131 20.9384 29.0752 20.8393 28.9761C20.7401 28.8771 20.6843 28.7428 20.6841 28.6027V22.7827H14.8594C14.7192 22.7825 14.5847 22.7268 14.4856 22.6277C14.3864 22.5286 14.3306 22.3943 14.3304 22.2542V21.1956C14.3304 20.9036 14.5671 20.6671 14.8594 20.6671H20.6841V14.8471C20.6841 14.5551 20.9208 14.3186 21.2131 14.3186H22.2725C22.5648 14.3186 22.8015 14.5551 22.8015 14.8471V20.6671H28.6262C28.9185 20.6671 29.1552 20.9036 29.1552 21.1956Z" fill="white"/>
<path d="M14.8594 58.5677C14.7192 58.5675 14.5847 58.5118 14.4856 58.4127C14.3864 58.3136 14.3306 58.1793 14.3304 58.0392V56.9806C14.3304 56.6886 14.5671 56.4521 14.8594 56.4521H28.6262C28.9185 56.4521 29.1551 56.6886 29.1551 56.9806V58.0392C29.1549 58.1793 29.0991 58.3136 29 58.4127C28.9008 58.5118 28.7664 58.5675 28.6262 58.5677H14.8594Z" fill="white"/>
</svg>
