<svg width="20" height="20" viewBox="0 0 20 20" fill="none" xmlns="http://www.w3.org/2000/svg">
<path d="M10 17.5C14.1421 17.5 17.5 14.1421 17.5 10C17.5 5.85786 14.1421 2.5 10 2.5C5.85786 2.5 2.5 5.85786 2.5 10C2.5 14.1421 5.85786 17.5 10 17.5Z" stroke="black" stroke-opacity="0.5" stroke-width="1.5" stroke-linecap="round" stroke-linejoin="round"/>
<path d="M13.2483 11.8748C12.9188 12.4446 12.4452 12.9178 11.8751 13.2467C11.3049 13.5757 10.6583 13.7489 10 13.7489C9.34177 13.7489 8.6951 13.5757 8.12494 13.2468C7.55478 12.9178 7.08119 12.4447 6.75171 11.8748" stroke="black" stroke-opacity="0.5" stroke-width="2" stroke-linecap="round" stroke-linejoin="round"/>
<path d="M7.1875 9.375C7.70527 9.375 8.125 8.95527 8.125 8.4375C8.125 7.91973 7.70527 7.5 7.1875 7.5C6.66973 7.5 6.25 7.91973 6.25 8.4375C6.25 8.95527 6.66973 9.375 7.1875 9.375Z" fill="black" fill-opacity="0.5"/>
<path d="M12.8125 9.375C13.3303 9.375 13.75 8.95527 13.75 8.4375C13.75 7.91973 13.3303 7.5 12.8125 7.5C12.2947 7.5 11.875 7.91973 11.875 8.4375C11.875 8.95527 12.2947 9.375 12.8125 9.375Z" fill="black" fill-opacity="0.5"/>
</svg>
