<svg width="32" height="32" viewBox="0 0 32 32" fill="none" xmlns="http://www.w3.org/2000/svg">
<g clip-path="url(#clip0_509_2424)">
<path d="M8 20H5.33333C4.97971 20 4.64057 19.8596 4.39052 19.6095C4.14048 19.3595 4 19.0203 4 18.6667V13.3334C4 12.9798 4.14048 12.6406 4.39052 12.3906C4.64057 12.1405 4.97971 12 5.33333 12H8L12.6667 6.00004C12.7832 5.77369 12.9769 5.59648 13.2127 5.50043C13.4484 5.40439 13.7108 5.39586 13.9523 5.47637C14.1939 5.55688 14.3986 5.72113 14.5296 5.93943C14.6606 6.15774 14.7092 6.4157 14.6667 6.66671V25.3334C14.7092 25.5844 14.6606 25.8424 14.5296 26.0607C14.3986 26.279 14.1939 26.4432 13.9523 26.5237C13.7108 26.6042 13.4484 26.5957 13.2127 26.4997C12.9769 26.4036 12.7832 26.2264 12.6667 26L8 20Z" stroke="#0E1934" stroke-width="1.5" stroke-linecap="round" stroke-linejoin="round"/>
<path d="M26.6666 13.3333L21.3332 18.6666M21.3332 13.3333L26.6666 18.6666L21.3332 13.3333Z" stroke="#0E1934" stroke-width="1.5" stroke-linecap="round" stroke-linejoin="round"/>
</g>
<defs>
<clipPath id="clip0_509_2424">
<rect width="32" height="32" fill="white"/>
</clipPath>
</defs>
</svg>
