<svg width="24" height="24" viewBox="0 0 24 24" fill="none" xmlns="http://www.w3.org/2000/svg">
<g clip-path="url(#clip0_509_2386)">
<path d="M10 14L21 3" stroke="black" stroke-opacity="0.5" stroke-width="1.5" stroke-linecap="round" stroke-linejoin="round"/>
<path d="M21.0001 3L14.5001 21C14.4562 21.0957 14.3857 21.1769 14.2971 21.2338C14.2085 21.2906 14.1054 21.3209 14.0001 21.3209C13.8947 21.3209 13.7916 21.2906 13.703 21.2338C13.6144 21.1769 13.5439 21.0957 13.5001 21L10.0001 14L3.00006 10.5C2.90431 10.4561 2.82318 10.3857 2.7663 10.2971C2.70942 10.2084 2.67918 10.1053 2.67918 10C2.67918 9.89468 2.70942 9.79158 2.7663 9.70295C2.82318 9.61431 2.90431 9.54387 3.00006 9.5L21.0001 3Z" stroke="black" stroke-opacity="0.5" stroke-width="1.5" stroke-linecap="round" stroke-linejoin="round"/>
</g>
<defs>
<clipPath id="clip0_509_2386">
<rect width="24" height="24" fill="white"/>
</clipPath>
</defs>
</svg>
