<svg width="24" height="24" viewBox="0 0 24 24" fill="none" xmlns="http://www.w3.org/2000/svg">
<g clip-path="url(#clip0_509_2389)">
<path d="M4.99998 4H8.99998L11 9L8.49998 10.5C9.57094 12.6715 11.3285 14.429 13.5 15.5L15 13L20 15V19C20 19.5304 19.7893 20.0391 19.4142 20.4142C19.0391 20.7893 18.5304 21 18 21C14.0992 20.763 10.4201 19.1065 7.65681 16.3432C4.89349 13.5798 3.23703 9.90074 2.99998 6C2.99998 5.46957 3.2107 4.96086 3.58577 4.58579C3.96084 4.21071 4.46955 4 4.99998 4" stroke="white" stroke-width="1.5" stroke-linecap="round" stroke-linejoin="round"/>
<path d="M15 7C15.5305 7 16.0392 7.21071 16.4143 7.58579C16.7893 7.96086 17 8.46957 17 9" stroke="white" stroke-width="1.5" stroke-linecap="round" stroke-linejoin="round"/>
<path d="M15 3C16.5913 3 18.1175 3.63214 19.2427 4.75736C20.3679 5.88258 21 7.4087 21 9" stroke="white" stroke-width="1.5" stroke-linecap="round" stroke-linejoin="round"/>
</g>
<defs>
<clipPath id="clip0_509_2389">
<rect width="24" height="24" fill="white"/>
</clipPath>
</defs>
</svg>
