<svg width="15" height="15" viewBox="0 0 15 15" fill="none" xmlns="http://www.w3.org/2000/svg">
<g clip-path="url(#clip0_43_1294)">
<path d="M7.5 8.75C8.53553 8.75 9.375 7.91053 9.375 6.875C9.375 5.83947 8.53553 5 7.5 5C6.46447 5 5.625 5.83947 5.625 6.875C5.625 7.91053 6.46447 8.75 7.5 8.75Z" stroke="white" stroke-width="0.9375" stroke-linecap="round" stroke-linejoin="round"/>
<path d="M11.0356 10.4106L8.38375 13.0624C8.14937 13.2966 7.83162 13.4281 7.50032 13.4281C7.16901 13.4281 6.85126 13.2966 6.61688 13.0624L3.96438 10.4106C3.26514 9.71129 2.78896 8.82038 2.59606 7.85048C2.40315 6.88058 2.50218 5.87526 2.88063 4.96165C3.25908 4.04803 3.89994 3.26715 4.72218 2.71776C5.54442 2.16836 6.51111 1.87512 7.5 1.87512C8.4889 1.87512 9.45559 2.16836 10.2778 2.71776C11.1001 3.26715 11.7409 4.04803 12.1194 4.96165C12.4978 5.87526 12.5969 6.88058 12.4039 7.85048C12.211 8.82038 11.7349 9.71129 11.0356 10.4106V10.4106Z" stroke="white" stroke-width="0.9375" stroke-linecap="round" stroke-linejoin="round"/>
</g>
<defs>
<clipPath id="clip0_43_1294">
<rect width="15" height="15" fill="white"/>
</clipPath>
</defs>
</svg>
