<svg width="27" height="27" viewBox="0 0 27 27" fill="none" xmlns="http://www.w3.org/2000/svg">
<mask id="path-1-inside-1_40_990" fill="white">
<path fill-rule="evenodd" clip-rule="evenodd" d="M13.5 27C20.9558 27 27 20.9558 27 13.5C27 6.04416 20.9558 0 13.5 0C6.04416 0 0 6.04416 0 13.5C0 20.9558 6.04416 27 13.5 27ZM13.3763 11.3515C14.3172 12.1686 15.3572 12.7629 16.4963 13.1096V7.25332H10.6029V13.0972C11.6305 12.8001 12.5591 12.2181 13.3763 11.3515ZM15.1344 8.25619V11.2772C14.7258 11.0296 14.3791 10.7324 14.082 10.3857C14.441 9.75431 14.6763 9.0362 14.763 8.25619H15.1344ZM12.8563 9.91526C12.6458 10.2495 12.3486 10.6086 11.9648 10.9677V8.25619H13.3763C13.3144 8.87525 13.141 9.4324 12.8563 9.91526ZM13.822 17.6287C14.5401 18.4458 15.4439 19.0154 16.4963 19.3373V13.4934H10.6029V14.4963H12.0391C11.0858 16.1553 10.6029 17.5544 10.6029 18.6811V19.1887H11.9648V18.6811C11.9648 17.9506 12.2248 17.022 12.7448 15.9325C13.0048 16.5515 13.3639 17.1211 13.822 17.6287ZM15.1344 14.4963V17.2077C14.7506 16.8363 14.4534 16.4896 14.2553 16.1553C13.9582 15.6725 13.7848 15.1153 13.7229 14.4963H15.1344Z"/>
</mask>
<path d="M16.4963 13.1096L16.005 14.724L18.1838 15.3871V13.1096H16.4963ZM13.3763 11.3515L14.4827 10.0773L13.2597 9.01523L12.1485 10.1938L13.3763 11.3515ZM16.4963 7.25332H18.1838V5.56582H16.4963V7.25332ZM10.6029 7.25332V5.56582H8.91541V7.25332H10.6029ZM10.6029 13.0972H8.91541V15.3418L11.0717 14.7183L10.6029 13.0972ZM15.1344 11.2772L14.2598 12.7203L16.8219 14.2731V11.2772H15.1344ZM15.1344 8.25619H16.8219V6.56869H15.1344V8.25619ZM14.082 10.3857L12.6151 9.55161L12.0286 10.5831L12.8007 11.484L14.082 10.3857ZM14.763 8.25619V6.56869H13.2526L13.0858 8.06984L14.763 8.25619ZM11.9648 10.9677H10.2773V14.8571L13.1177 12.2L11.9648 10.9677ZM12.8563 9.91526L14.2843 10.8144L14.2974 10.7936L14.3098 10.7725L12.8563 9.91526ZM11.9648 8.25619V6.56869H10.2773V8.25619H11.9648ZM13.3763 8.25619L15.0554 8.42411L15.2409 6.56869H13.3763V8.25619ZM16.4963 19.3373L16.0027 20.951L18.1838 21.6181V19.3373H16.4963ZM13.822 17.6287L15.0896 16.5147L15.0822 16.5064L15.0748 16.4981L13.822 17.6287ZM16.4963 13.4934H18.1838V11.8059H16.4963V13.4934ZM10.6029 13.4934V11.8059H8.91541V13.4934H10.6029ZM10.6029 14.4963H8.91541V16.1838H10.6029V14.4963ZM12.0391 14.4963L13.5023 15.337L14.9551 12.8088H12.0391V14.4963ZM10.6029 19.1887H8.91541V20.8762H10.6029V19.1887ZM11.9648 19.1887V20.8762H13.6523V19.1887H11.9648ZM12.7448 15.9325L14.3007 15.279L12.8431 11.8087L11.2219 15.2056L12.7448 15.9325ZM15.1344 17.2077L13.9609 18.4204L16.8219 21.1891V17.2077H15.1344ZM15.1344 14.4963H16.8219V12.8088H15.1344V14.4963ZM14.2553 16.1553L15.7071 15.295L15.6999 15.2829L15.6925 15.2709L14.2553 16.1553ZM13.7229 14.4963V12.8088H11.8583L12.0438 14.6642L13.7229 14.4963ZM25.3125 13.5C25.3125 20.0239 20.0239 25.3125 13.5 25.3125V28.6875C21.8878 28.6875 28.6875 21.8878 28.6875 13.5H25.3125ZM13.5 1.6875C20.0239 1.6875 25.3125 6.97614 25.3125 13.5H28.6875C28.6875 5.11217 21.8878 -1.6875 13.5 -1.6875V1.6875ZM1.6875 13.5C1.6875 6.97614 6.97614 1.6875 13.5 1.6875V-1.6875C5.11217 -1.6875 -1.6875 5.11217 -1.6875 13.5H1.6875ZM13.5 25.3125C6.97614 25.3125 1.6875 20.0239 1.6875 13.5H-1.6875C-1.6875 21.8878 5.11217 28.6875 13.5 28.6875V25.3125ZM16.9876 11.4952C16.0954 11.2237 15.2615 10.7536 14.4827 10.0773L12.2698 12.6256C13.373 13.5836 14.6191 14.3022 16.005 14.724L16.9876 11.4952ZM14.8088 7.25332V13.1096H18.1838V7.25332H14.8088ZM10.6029 8.94082H16.4963V5.56582H10.6029V8.94082ZM12.2904 13.0972V7.25332H8.91541V13.0972H12.2904ZM12.1485 10.1938C11.5168 10.8638 10.8431 11.2711 10.1342 11.4761L11.0717 14.7183C12.418 14.329 13.6015 13.5725 14.6041 12.5091L12.1485 10.1938ZM16.8219 11.2772V8.25619H13.4469V11.2772H16.8219ZM12.8007 11.484C13.2132 11.9652 13.6968 12.3792 14.2598 12.7203L16.009 9.83403C15.7548 9.67996 15.5451 9.49965 15.3632 9.28753L12.8007 11.484ZM13.0858 8.06984C13.0238 8.62777 12.8578 9.12465 12.6151 9.55161L15.5489 11.2199C16.0242 10.384 16.3288 9.44464 16.4401 8.44254L13.0858 8.06984ZM15.1344 6.56869H14.763V9.94369H15.1344V6.56869ZM13.1177 12.2C13.5907 11.7575 13.9856 11.2888 14.2843 10.8144L11.4282 9.01614C11.306 9.21032 11.1066 9.4597 10.812 9.73532L13.1177 12.2ZM10.2773 8.25619V10.9677H13.6523V8.25619H10.2773ZM13.3763 6.56869H11.9648V9.94369H13.3763V6.56869ZM14.3098 10.7725C14.7337 10.0538 14.9722 9.25575 15.0554 8.42411L11.6971 8.08828C11.6565 8.49474 11.5484 8.81101 11.4027 9.05803L14.3098 10.7725ZM16.9899 17.7236C16.2224 17.4888 15.5913 17.0857 15.0896 16.5147L12.5544 18.7426C13.4889 19.806 14.6654 20.5419 16.0027 20.951L16.9899 17.7236ZM14.8088 13.4934V19.3373H18.1838V13.4934H14.8088ZM10.6029 15.1809H16.4963V11.8059H10.6029V15.1809ZM12.2904 14.4963V13.4934H8.91541V14.4963H12.2904ZM12.0391 12.8088H10.6029V16.1838H12.0391V12.8088ZM12.2904 18.6811C12.2904 17.9914 12.6037 16.9007 13.5023 15.337L10.576 13.6555C9.5678 15.41 8.91541 17.1174 8.91541 18.6811H12.2904ZM12.2904 19.1887V18.6811H8.91541V19.1887H12.2904ZM11.9648 17.5012H10.6029V20.8762H11.9648V17.5012ZM10.2773 18.6811V19.1887H13.6523V18.6811H10.2773ZM11.2219 15.2056C10.6523 16.399 10.2773 17.5912 10.2773 18.6811H13.6523C13.6523 18.31 13.7973 17.645 14.2678 16.6593L11.2219 15.2056ZM15.0748 16.4981C14.7452 16.1329 14.488 15.7251 14.3007 15.279L11.189 16.5859C11.5216 17.378 11.9826 18.1092 12.5692 18.7592L15.0748 16.4981ZM16.8219 17.2077V14.4963H13.4469V17.2077H16.8219ZM12.8036 17.0156C13.1098 17.5323 13.5248 17.9984 13.9609 18.4204L16.3079 15.9951C15.9763 15.6742 15.7971 15.4469 15.7071 15.295L12.8036 17.0156ZM12.0438 14.6642C12.127 15.4959 12.367 16.3066 12.8182 17.0397L15.6925 15.2709C15.5494 15.0384 15.4427 14.7348 15.4021 14.3283L12.0438 14.6642ZM15.1344 12.8088H13.7229V16.1838H15.1344V12.8088Z" fill="white" mask="url(#path-1-inside-1_40_990)"/>
</svg>
