<svg width="148" height="18" viewBox="0 0 148 18" fill="none" xmlns="http://www.w3.org/2000/svg">
<path d="M8.98857 17.3042C11.7524 17.3042 14.1077 16.3188 15.6699 14.4923L13.6511 12.5696C12.4254 13.9155 10.9113 14.5644 9.1568 14.5644C5.67193 14.5644 3.1484 12.1129 3.1484 8.6521C3.1484 5.19126 5.67193 2.73983 9.1568 2.73983C10.9113 2.73983 12.4254 3.38874 13.6511 4.71059L15.6699 2.81193C14.1077 0.985378 11.7524 0 9.0126 0C3.84538 0 0 3.62907 0 8.6521C0 13.6751 3.84538 17.3042 8.98857 17.3042Z" fill="white"/>
<path d="M40.5462 17.0639L36.6768 11.5361C38.96 10.6469 40.2578 8.77226 40.2578 6.2247C40.2578 2.4995 37.518 0.240336 33.0958 0.240336H26.1741V17.0639H29.2985V12.161H33.0958C33.3121 12.161 33.5284 12.161 33.7447 12.137L37.1815 17.0639H40.5462ZM37.1094 6.2247C37.1094 8.33966 35.6914 9.58941 32.9516 9.58941H29.2985V2.88403H32.9516C35.6914 2.88403 37.1094 4.10975 37.1094 6.2247Z" fill="white"/>
<path d="M54.3882 14.4442V9.80571H62.5116V7.23411H54.3882V2.86H63.545V0.240336H51.2639V17.0639H63.8815V14.4442H54.3882Z" fill="white"/>
<path d="M87.4686 17.0639H90.7372L83.1425 0.240336H80.0663L72.4957 17.0639H75.7162L78.432 10.719L81.5804 2.88403L84.7528 10.719L87.4686 17.0639ZM78.432 10.719L81.5804 3.3647L84.7528 10.719L81.5804 2.88403L78.432 10.719Z" fill="white"/>
<path d="M102.955 17.0639H106.079V2.88403H111.655V0.240336H97.3793V2.88403H102.955V17.0639Z" fill="white"/>
<path d="M124.635 14.4442V9.80571H132.758V7.23411H124.635V2.86H133.792V0.240336H121.51V17.0639H134.128V14.4442H124.635Z" fill="white"/>
<path d="M146.029 17.2321C147.111 17.2321 148 16.3909 148 15.2373C148 14.0356 147.111 13.2425 146.029 13.2425C144.948 13.2425 144.059 14.0356 144.059 15.2373C144.059 16.3909 144.948 17.2321 146.029 17.2321Z" fill="white"/>
</svg>
