<svg width="14" height="13" viewBox="0 0 14 13" fill="none" xmlns="http://www.w3.org/2000/svg">
<path fill-rule="evenodd" clip-rule="evenodd" d="M6.85785 9.6358C6.96689 9.6358 7.07594 9.66186 7.17538 9.7133L9.76025 11.0644L9.26851 8.21341C9.22942 7.98983 9.30418 7.76213 9.4674 7.60371L11.5496 5.59013L8.66705 5.17041C8.44415 5.13818 8.25144 4.99895 8.15131 4.79732L6.85785 2.19531L5.56438 4.79732C5.46425 4.99895 5.27154 5.13818 5.04865 5.17041L2.16613 5.59013L4.24829 7.60371C4.41152 7.76213 4.48627 7.98983 4.44718 8.21341L3.95544 11.0644L6.54031 9.7133C6.63975 9.66186 6.7488 9.6358 6.85785 9.6358ZM10.6725 12.9998C10.5634 12.9998 10.4544 12.9744 10.3549 12.9223L6.85792 11.0952L3.36091 12.9223C3.1291 13.043 2.84928 13.0217 2.64011 12.8681C2.42887 12.7145 2.32394 12.4545 2.36784 12.1974L3.03446 8.33755L0.208865 5.60454C0.0202639 5.4228 -0.0469467 5.14984 0.0332945 4.90089C0.11285 4.65194 0.328198 4.47088 0.586754 4.43316L4.49663 3.8653L6.24342 0.34977C6.47523 -0.11659 7.24061 -0.11659 7.47241 0.34977L9.21921 3.8653L13.1291 4.43316C13.3876 4.47088 13.603 4.65194 13.6825 4.90089C13.7628 5.14984 13.6956 5.4228 13.507 5.60454L10.6814 8.33755L11.348 12.1974C11.3919 12.4545 11.287 12.7145 11.0757 12.8681C10.9571 12.9559 10.8151 12.9998 10.6725 12.9998Z" fill="#F7C480"/>
</svg>
