<svg width="200" height="200" viewBox="0 0 200 200" fill="none" xmlns="http://www.w3.org/2000/svg">
<path d="M18.75 18.75H68.75V6.25H6.25V68.75H18.75V18.75Z" fill="#FF1863"/>
<path d="M68.75 68.75V31.25H31.25V68.75H68.75ZM43.75 43.75H56.25V56.25H43.75V43.75Z" fill="#FF1863"/>
<path d="M128.125 18.75H181.25V68.75H193.75V6.25H128.125V18.75Z" fill="#FF1863"/>
<path d="M168.75 68.75V31.25H131.25V68.75H168.75ZM143.75 43.75H156.25V56.25H143.75V43.75Z" fill="#FF1863"/>
<path d="M68.75 181.25H18.75V131.25H6.25V193.75H68.75V181.25Z" fill="#FF1863"/>
<path d="M68.75 131.25H31.25V168.75H68.75V131.25ZM56.25 156.25H43.75V143.75H56.25V156.25Z" fill="#FF1863"/>
<path d="M181.25 181.25H128.125V193.75H193.75V131.25H181.25V181.25Z" fill="#FF1863"/>
<path d="M106.25 118.75H156.25V143.75H168.75V106.25H106.25V118.75Z" fill="#FF1863"/>
<path d="M168.75 168.75V156.25H93.75V106.25H31.25V118.75H81.25V168.75H168.75Z" fill="#FF1863"/>
<path d="M81.25 31.25H93.75V68.75H81.25V31.25Z" fill="#FF1863"/>
<path d="M31.25 93.75H118.75V31.25H106.25V81.25H31.25V93.75Z" fill="#FF1863"/>
<path d="M131.25 81.25H168.75V93.75H131.25V81.25Z" fill="#FF1863"/>
<path d="M131.25 131.25H143.75V143.75H131.25V131.25Z" fill="#FF1863"/>
<path d="M106.25 131.25H118.75V143.75H106.25V131.25Z" fill="#FF1863"/>
</svg>
