<svg width="256" height="372" viewBox="0 0 256 372" fill="none" xmlns="http://www.w3.org/2000/svg">
<path d="M255.103 49.2765C255.251 49.3049 255.358 49.4342 255.358 49.5847V64.6014C255.358 64.7747 255.217 64.9153 255.044 64.9153V68.5781C255.217 68.5781 255.358 68.7186 255.358 68.8919V77.4729C255.358 77.6463 255.217 77.7868 255.044 77.7868V98.6116C255.217 98.6116 255.358 98.7521 255.358 98.9254V128.959C255.358 129.132 255.217 129.273 255.044 129.273V132.936C255.217 132.936 255.358 133.076 255.358 133.249V141.83C255.358 142.004 255.217 142.144 255.044 142.144V162.969C255.217 162.969 255.358 163.11 255.358 163.283V193.316C255.358 193.49 255.217 193.63 255.044 193.63V197.293C255.217 197.293 255.358 197.434 255.358 197.607V206.188C255.358 206.361 255.217 206.502 255.044 206.502V227.327C255.217 227.327 255.358 227.467 255.358 227.641V257.674C255.358 257.847 255.217 257.988 255.044 257.988V261.651C255.217 261.651 255.358 261.791 255.358 261.965V270.546C255.358 270.719 255.217 270.859 255.044 270.859V291.684C255.217 291.684 255.358 291.825 255.358 291.998V322.032C255.358 322.205 255.217 322.345 255.044 322.345V326.008C255.217 326.008 255.358 326.149 255.358 326.322V334.903C255.358 335.076 255.217 335.217 255.044 335.217V356.042C255.217 356.042 255.358 356.182 255.358 356.356V371.372C255.358 371.466 255.316 371.555 255.244 371.614C255.172 371.674 255.077 371.698 254.985 371.681L240.144 368.825C239.973 368.792 239.862 368.627 239.895 368.457L236.271 367.76C236.238 367.93 236.074 368.041 235.903 368.009L227.423 366.377C227.253 366.344 227.141 366.18 227.174 366.009L206.589 362.048C206.556 362.218 206.392 362.33 206.221 362.297L176.54 356.585C176.369 356.553 176.258 356.388 176.291 356.218L172.667 355.521C172.634 355.691 172.47 355.802 172.299 355.77L163.819 354.138C163.649 354.105 163.537 353.94 163.57 353.77L142.985 349.809C142.952 349.979 142.788 350.091 142.617 350.058L112.936 344.346C112.765 344.313 112.654 344.149 112.687 343.979L109.063 343.281C109.03 343.452 108.865 343.563 108.695 343.53L100.215 341.898C100.045 341.866 99.9331 341.701 99.9659 341.531L79.3809 337.57C79.3481 337.74 79.1836 337.851 79.0134 337.819L49.3315 332.107C49.1613 332.074 49.0499 331.91 49.0826 331.739L45.4587 331.042C45.426 331.212 45.2614 331.324 45.0912 331.291L36.6107 329.659C36.4405 329.626 36.3291 329.462 36.3618 329.292L15.7768 325.33C15.7441 325.501 15.5795 325.612 15.4093 325.579L0.568397 322.724C0.420647 322.695 0.313874 322.566 0.313874 322.415V307.399C0.313874 307.225 0.45437 307.085 0.627702 307.085V303.422C0.45437 303.422 0.313874 303.281 0.313874 303.108V294.527C0.313874 294.354 0.45437 294.213 0.627702 294.213V273.388C0.45437 273.388 0.313874 273.248 0.313874 273.075V243.041C0.313874 242.868 0.45437 242.727 0.627702 242.727V239.064C0.45437 239.064 0.313874 238.924 0.313874 238.751V230.17C0.313874 229.996 0.45437 229.856 0.627702 229.856V209.031C0.45437 209.031 0.313874 208.89 0.313874 208.717V178.684C0.313874 178.51 0.45437 178.37 0.627702 178.37V174.707C0.45437 174.707 0.313874 174.566 0.313874 174.393V165.812C0.313874 165.639 0.45437 165.498 0.627702 165.498V144.673C0.45437 144.673 0.313874 144.533 0.313874 144.359V114.326C0.313874 114.153 0.45437 114.012 0.627702 114.012V110.349C0.45437 110.349 0.313874 110.209 0.313874 110.035V101.454C0.313874 101.281 0.45437 101.141 0.627702 101.141V80.3158C0.45437 80.3158 0.313874 80.1753 0.313874 80.002V49.9684C0.313874 49.7951 0.45437 49.6546 0.627702 49.6546V45.9918C0.45437 45.9918 0.313874 45.8512 0.313874 45.6779V37.0969C0.313874 36.9236 0.45437 36.7831 0.627702 36.7831V15.9583C0.45437 15.9583 0.313874 15.8177 0.313874 15.6444V0.627672C0.313874 0.534049 0.355661 0.445315 0.427856 0.385696C0.500036 0.326077 0.595064 0.301799 0.687007 0.31949L15.5279 3.17531C15.6982 3.20807 15.8096 3.3726 15.7768 3.5428L19.4007 4.24014C19.4335 4.06994 19.598 3.95851 19.7682 3.99126L28.2488 5.62316C28.419 5.65592 28.5304 5.82044 28.4976 5.99065L49.0826 9.95179C49.1154 9.78159 49.2799 9.67016 49.4501 9.70291L79.132 15.4146C79.3022 15.4473 79.4136 15.6118 79.3809 15.782L83.0048 16.4794C83.0375 16.3092 83.2021 16.1978 83.3723 16.2305L91.8528 17.8624C92.023 17.8952 92.1344 18.0597 92.1017 18.2299L112.687 22.191C112.719 22.0208 112.884 21.9094 113.054 21.9422L142.736 27.6538C142.906 27.6866 143.018 27.8511 142.985 28.0213L146.609 28.7186C146.642 28.5484 146.806 28.437 146.976 28.4698L155.457 30.1017C155.627 30.1344 155.738 30.2989 155.706 30.4691L176.291 34.4303C176.323 34.2601 176.488 34.1487 176.658 34.1814L206.34 39.8931C206.51 39.9258 206.622 40.0903 206.589 40.2605L210.213 40.9579C210.246 40.7877 210.41 40.6763 210.58 40.709L219.061 42.3409C219.231 42.3737 219.343 42.5382 219.31 42.7084L239.895 46.6695C239.928 46.4993 240.092 46.3879 240.262 46.4207L255.103 49.2765Z" stroke="#FF1863" stroke-width="0.62709" stroke-linecap="round" stroke-linejoin="round" stroke-dasharray="29.26 4.18 8.36 20.9"/>
</svg>
