<svg width="243" height="15" viewBox="0 0 243 15" fill="none" xmlns="http://www.w3.org/2000/svg">
<path d="M7.48174 14.4034C9.78228 14.4034 11.7427 13.5832 13.043 12.0628L11.3626 10.4624C10.3424 11.5827 9.08212 12.1228 7.62178 12.1228C4.7211 12.1228 2.62061 10.0824 2.62061 7.20168C2.62061 4.32101 4.7211 2.28053 7.62178 2.28053C9.08212 2.28053 10.3424 2.82066 11.3626 3.92091L13.043 2.34055C11.7427 0.820191 9.78228 0 7.50175 0C3.20075 0 0 3.0207 0 7.20168C0 11.3827 3.20075 14.4034 7.48174 14.4034Z" fill="white"/>
<path d="M31.4986 14.2033L28.2778 9.60224C30.1783 8.86207 31.2585 7.3017 31.2585 5.18121C31.2585 2.08049 28.978 0.200046 25.2971 0.200046H19.5358V14.2033H22.1364V10.1224H25.2971C25.4772 10.1224 25.6572 10.1224 25.8373 10.1024L28.6979 14.2033H31.4986ZM28.6379 5.18121C28.6379 6.94162 27.4576 7.98186 25.1771 7.98186H22.1364V2.40056H25.1771C27.4576 2.40056 28.6379 3.4208 28.6379 5.18121Z" fill="white"/>
<path d="M40.7697 12.0228V8.1619H47.5312V6.0214H40.7697V2.38056H48.3914V0.200046H38.1691V14.2033H48.6715V12.0228H40.7697Z" fill="white"/>
<path d="M66.054 14.2033H68.7746L62.4532 0.200046H59.8926L53.5911 14.2033H56.2717L58.5322 8.92208L61.1528 2.80065L63.7935 8.92208L66.054 14.2033Z" fill="white"/>
<path d="M76.6938 14.2033H79.2944V2.40056H83.9355V0.200046H72.0527V2.40056H76.6938V14.2033Z" fill="white"/>
<path d="M92.4887 12.0228V8.1619H99.2503V6.0214H92.4887V2.38056H100.111V0.200046H89.8881V14.2033H100.391V12.0228H92.4887Z" fill="white"/>
<path d="M127.303 14.2033H130.023L123.702 0.200046H121.141L114.84 14.2033H117.52L119.781 8.92208L122.402 2.80065L125.042 8.92208L127.303 14.2033Z" fill="white"/>
<path d="M142.091 14.4034C144.392 14.4034 146.352 13.5832 147.653 12.0628L145.972 10.4624C144.952 11.5827 143.692 12.1228 142.231 12.1228C139.331 12.1228 137.23 10.0824 137.23 7.20168C137.23 4.32101 139.331 2.28053 142.231 2.28053C143.692 2.28053 144.952 2.82066 145.972 3.92091L147.653 2.34055C146.352 0.820191 144.392 0 142.111 0C137.81 0 134.61 3.0207 134.61 7.20168C134.61 11.3827 137.81 14.4034 142.091 14.4034Z" fill="white"/>
<path d="M160.334 14.4034C162.634 14.4034 164.595 13.5832 165.895 12.0628L164.215 10.4624C163.194 11.5827 161.934 12.1228 160.474 12.1228C157.573 12.1228 155.473 10.0824 155.473 7.20168C155.473 4.32101 157.573 2.28053 160.474 2.28053C161.934 2.28053 163.194 2.82066 164.215 3.92091L165.895 2.34055C164.595 0.820191 162.634 0 160.354 0C156.053 0 152.852 3.0207 152.852 7.20168C152.852 11.3827 156.053 14.4034 160.334 14.4034Z" fill="white"/>
<path d="M178.636 14.4034C182.977 14.4034 186.178 11.3626 186.178 7.20168C186.178 3.04071 182.977 0 178.636 0C174.295 0 171.095 3.06071 171.095 7.20168C171.095 11.3426 174.295 14.4034 178.636 14.4034ZM178.636 12.1228C175.816 12.1228 173.715 10.0623 173.715 7.20168C173.715 4.34101 175.816 2.28053 178.636 2.28053C181.457 2.28053 183.557 4.34101 183.557 7.20168C183.557 10.0623 181.457 12.1228 178.636 12.1228Z" fill="white"/>
<path d="M198.957 14.4034C202.778 14.4034 205.078 12.1828 205.078 8.10189V0.200046H202.518V8.00187C202.518 10.8825 201.238 12.1228 198.977 12.1228C196.716 12.1228 195.416 10.8825 195.416 8.00187V0.200046H192.816V8.10189C192.816 12.1828 195.116 14.4034 198.957 14.4034Z" fill="white"/>
<path d="M222.584 0.200046V9.68226L214.862 0.200046H212.721V14.2033H215.302V4.7211L223.024 14.2033H225.164V0.200046H222.584Z" fill="white"/>
<path d="M235.758 14.2033H238.359V2.40056H243V0.200046H231.117V2.40056H235.758V14.2033Z" fill="white"/>
</svg>
