<svg width="256" height="372" viewBox="0 0 256 372" fill="none" xmlns="http://www.w3.org/2000/svg">
<path d="M0.568353 49.2765C0.420604 49.3049 0.313821 49.4342 0.313821 49.5847V64.6014C0.313821 64.7747 0.45433 64.9153 0.627656 64.9153V68.5781C0.45433 68.5781 0.313821 68.7186 0.313821 68.8919V77.4729C0.313821 77.6463 0.45433 77.7868 0.627656 77.7868V98.6116C0.45433 98.6116 0.313821 98.7521 0.313821 98.9254V128.959C0.313821 129.132 0.45433 129.273 0.627656 129.273V132.936C0.45433 132.936 0.313821 133.076 0.313821 133.249V141.83C0.313821 142.004 0.45433 142.144 0.627656 142.144V162.969C0.45433 162.969 0.313821 163.11 0.313821 163.283V193.316C0.313821 193.49 0.45433 193.63 0.627656 193.63V197.293C0.45433 197.293 0.313821 197.434 0.313821 197.607V206.188C0.313821 206.361 0.45433 206.502 0.627656 206.502V227.327C0.45433 227.327 0.313821 227.467 0.313821 227.641V257.674C0.313821 257.847 0.45433 257.988 0.627656 257.988V261.651C0.45433 261.651 0.313821 261.791 0.313821 261.965V270.546C0.313821 270.719 0.45433 270.859 0.627656 270.859V291.684C0.45433 291.684 0.313821 291.825 0.313821 291.998V322.032C0.313821 322.205 0.45433 322.345 0.627656 322.345V326.008C0.45433 326.008 0.313821 326.149 0.313821 326.322V334.903C0.313821 335.076 0.45433 335.217 0.627656 335.217V356.042C0.45433 356.042 0.313821 356.182 0.313821 356.356V371.372C0.313821 371.466 0.355619 371.555 0.427805 371.614C0.49999 371.674 0.595024 371.698 0.686959 371.681L15.5279 368.825C15.6981 368.792 15.8095 368.627 15.7768 368.457L19.4007 367.76C19.4334 367.93 19.598 368.041 19.7682 368.009L28.2487 366.377C28.4189 366.344 28.5303 366.18 28.4976 366.009L49.0826 362.048C49.1153 362.218 49.2799 362.33 49.4501 362.297L79.1319 356.585C79.3022 356.553 79.4136 356.388 79.3808 356.218L83.0047 355.521C83.0375 355.691 83.202 355.802 83.3722 355.77L91.8528 354.138C92.023 354.105 92.1344 353.94 92.1016 353.77L112.687 349.809C112.719 349.979 112.884 350.091 113.054 350.058L142.736 344.346C142.906 344.313 143.018 344.149 142.985 343.979L146.609 343.281C146.642 343.452 146.806 343.563 146.976 343.53L155.457 341.898C155.627 341.866 155.738 341.701 155.706 341.531L176.291 337.57C176.323 337.74 176.488 337.851 176.658 337.819L206.34 332.107C206.51 332.074 206.622 331.91 206.589 331.739L210.213 331.042C210.246 331.212 210.41 331.324 210.58 331.291L219.061 329.659C219.231 329.626 219.342 329.462 219.31 329.292L239.895 325.33C239.927 325.501 240.092 325.612 240.262 325.579L255.103 322.724C255.251 322.695 255.358 322.566 255.358 322.415V307.399C255.358 307.225 255.217 307.085 255.044 307.085V303.422C255.217 303.422 255.358 303.281 255.358 303.108V294.527C255.358 294.354 255.217 294.213 255.044 294.213V273.388C255.217 273.388 255.358 273.248 255.358 273.075V243.041C255.358 242.868 255.217 242.727 255.044 242.727V239.064C255.217 239.064 255.358 238.924 255.358 238.751V230.17C255.358 229.996 255.217 229.856 255.044 229.856V209.031C255.217 209.031 255.358 208.89 255.358 208.717V178.684C255.358 178.51 255.217 178.37 255.044 178.37V174.707C255.217 174.707 255.358 174.566 255.358 174.393V165.812C255.358 165.639 255.217 165.498 255.044 165.498V144.673C255.217 144.673 255.358 144.533 255.358 144.359V114.326C255.358 114.153 255.217 114.012 255.044 114.012V110.349C255.217 110.349 255.358 110.209 255.358 110.035V101.454C255.358 101.281 255.217 101.141 255.044 101.141V80.3158C255.217 80.3158 255.358 80.1753 255.358 80.002V49.9684C255.358 49.7951 255.217 49.6546 255.044 49.6546V45.9918C255.217 45.9918 255.358 45.8512 255.358 45.6779V37.0969C255.358 36.9236 255.217 36.7831 255.044 36.7831V15.9583C255.217 15.9583 255.358 15.8177 255.358 15.6444V0.627672C255.358 0.534049 255.316 0.445315 255.244 0.385696C255.172 0.326077 255.076 0.301799 254.985 0.31949L240.144 3.17531C239.973 3.20807 239.862 3.3726 239.895 3.5428L236.271 4.24014C236.238 4.06994 236.074 3.95851 235.903 3.99126L227.423 5.62316C227.253 5.65592 227.141 5.82044 227.174 5.99065L206.589 9.95179C206.556 9.78159 206.392 9.67016 206.221 9.70291L176.54 15.4146C176.369 15.4473 176.258 15.6118 176.291 15.782L172.667 16.4794C172.634 16.3092 172.469 16.1978 172.299 16.2305L163.819 17.8624C163.649 17.8952 163.537 18.0597 163.57 18.2299L142.985 22.191C142.952 22.0208 142.788 21.9094 142.617 21.9422L112.936 27.6538C112.765 27.6866 112.654 27.8511 112.687 28.0213L109.063 28.7186C109.03 28.5484 108.865 28.437 108.695 28.4698L100.215 30.1017C100.045 30.1344 99.9331 30.2989 99.9658 30.4691L79.3808 34.4303C79.3481 34.2601 79.1835 34.1487 79.0133 34.1814L49.3314 39.8931C49.1612 39.9258 49.0498 40.0903 49.0826 40.2605L45.4587 40.9579C45.4259 40.7877 45.2614 40.6763 45.0912 40.709L36.6106 42.3409C36.4404 42.3737 36.329 42.5382 36.3618 42.7084L15.7768 46.6695C15.744 46.4993 15.5795 46.3879 15.4093 46.4207L0.568353 49.2765Z" stroke="#FF1863" stroke-width="0.62709" stroke-linecap="round" stroke-linejoin="round" stroke-dasharray="29.26 4.18 8.36 20.9"/>
</svg>
