<svg width="24" height="24" viewBox="0 0 24 24" fill="none" xmlns="http://www.w3.org/2000/svg">
<g clip-path="url(#clip0_43_1809)">
<path d="M17.9999 4H5.99994C4.89537 4 3.99994 4.89543 3.99994 6V18C3.99994 19.1046 4.89537 20 5.99994 20H17.9999C19.1045 20 19.9999 19.1046 19.9999 18V6C19.9999 4.89543 19.1045 4 17.9999 4Z" stroke="black" stroke-opacity="0.5" stroke-width="1.5" stroke-linecap="round" stroke-linejoin="round"/>
<path d="M3.99994 16H19.9999" stroke="black" stroke-opacity="0.5" stroke-width="1.5" stroke-linecap="round" stroke-linejoin="round"/>
<path d="M3.99994 12L6.99994 8.99995C7.92794 8.10695 9.07194 8.10695 9.99994 8.99995L13.9999 13" stroke="black" stroke-opacity="0.5" stroke-width="1.5" stroke-linecap="round" stroke-linejoin="round"/>
<path d="M12.9999 11.9999L14.9999 9.99995C15.9279 9.10695 17.0719 9.10695 17.9999 9.99995L19.9999 11.9999" stroke="black" stroke-opacity="0.5" stroke-width="1.5" stroke-linecap="round" stroke-linejoin="round"/>
<path d="M14.0001 7H14.0101" stroke="black" stroke-opacity="0.5" stroke-width="1.5" stroke-linecap="round" stroke-linejoin="round"/>
</g>
<defs>
<clipPath id="clip0_43_1809">
<rect width="24" height="24" fill="white"/>
</clipPath>
</defs>
</svg>
