<svg width="19" height="19" viewBox="0 0 19 19" fill="none" xmlns="http://www.w3.org/2000/svg">
<g clip-path="url(#clip0_42_1851)">
<path d="M5.54167 8.70835V15.0417C5.54167 15.2516 5.45826 15.453 5.30979 15.6015C5.16133 15.7499 4.95996 15.8334 4.75 15.8334H3.16667C2.9567 15.8334 2.75534 15.7499 2.60687 15.6015C2.45841 15.453 2.375 15.2516 2.375 15.0417V9.50002C2.375 9.29006 2.45841 9.08869 2.60687 8.94023C2.75534 8.79176 2.9567 8.70835 3.16667 8.70835H5.54167ZM5.54167 8.70835C6.38152 8.70835 7.18697 8.37472 7.78084 7.78086C8.3747 7.18699 8.70833 6.38154 8.70833 5.54169V4.75002C8.70833 4.33009 8.87515 3.92737 9.17208 3.63043C9.46901 3.3335 9.87174 3.16669 10.2917 3.16669C10.7116 3.16669 11.1143 3.3335 11.4113 3.63043C11.7082 3.92737 11.875 4.33009 11.875 4.75002V8.70835H14.25C14.6699 8.70835 15.0727 8.87517 15.3696 9.1721C15.6665 9.46903 15.8333 9.87176 15.8333 10.2917L15.0417 14.25C14.9278 14.7357 14.7118 15.1527 14.4263 15.4383C14.1407 15.7239 13.801 15.8625 13.4583 15.8334H7.91667C7.28678 15.8334 6.68269 15.5831 6.23729 15.1377C5.79189 14.6923 5.54167 14.0882 5.54167 13.4584" stroke="white" stroke-width="1.5" stroke-linecap="round" stroke-linejoin="round"/>
</g>
<defs>
<clipPath id="clip0_42_1851">
<rect width="19" height="19" fill="white"/>
</clipPath>
</defs>
</svg>
