<svg width="13" height="14" viewBox="0 0 13 14" fill="none" xmlns="http://www.w3.org/2000/svg">
<mask id="path-1-inside-1_42_1036" fill="white">
<path fill-rule="evenodd" clip-rule="evenodd" d="M6.46615 14C10.0373 14 12.9323 10.866 12.9323 7C12.9323 3.13401 10.0373 0 6.46615 0C2.89499 0 0 3.13401 0 7C0 10.866 2.89499 14 6.46615 14ZM6.40685 5.88594C6.85755 6.30965 7.35569 6.6178 7.90127 6.79756V3.76098H5.07848V6.79114C5.57069 6.63706 6.01546 6.33533 6.40685 5.88594ZM7.24894 4.28099V5.84743C7.05325 5.71903 6.8872 5.56495 6.74487 5.3852C6.91685 5.05779 7.02953 4.68544 7.07104 4.28099H7.24894ZM6.15778 5.14124C6.05697 5.31458 5.91464 5.50076 5.73081 5.68693V4.28099H6.40685C6.3772 4.60198 6.29418 4.89087 6.15778 5.14124ZM6.62034 9.1408C6.96429 9.5645 7.3972 9.85982 7.90127 10.0267V6.99657H5.07848V7.51658H5.76639C5.30976 8.37684 5.07848 9.10228 5.07848 9.68648V9.94969H5.73081V9.68648C5.73081 9.30771 5.85534 8.82622 6.10441 8.26128C6.22895 8.58227 6.40092 8.87758 6.62034 9.1408ZM7.24894 7.51658V8.92252C7.06511 8.72993 6.92278 8.55017 6.8279 8.37684C6.68557 8.12646 6.60255 7.83757 6.5729 7.51658H7.24894Z"/>
</mask>
<path d="M7.90127 6.79756L7.62746 7.62861L8.77627 8.00712V6.79756H7.90127ZM6.40685 5.88594L7.00619 5.24843L6.34397 4.62587L5.74703 5.31127L6.40685 5.88594ZM7.90127 3.76098H8.77627V2.88598H7.90127V3.76098ZM5.07848 3.76098V2.88598H4.20348V3.76098H5.07848ZM5.07848 6.79114H4.20348V7.98191L5.33988 7.62618L5.07848 6.79114ZM7.24894 5.84743L6.76895 6.57902L8.12394 7.46803V5.84743H7.24894ZM7.24894 4.28099H8.12394V3.40599H7.24894V4.28099ZM6.74487 5.3852L5.97024 4.97831L5.70558 5.48216L6.05887 5.92836L6.74487 5.3852ZM7.07104 4.28099V3.40599H6.28125L6.20061 4.19165L7.07104 4.28099ZM5.73081 5.68693H4.85581V7.81839L6.35342 6.30173L5.73081 5.68693ZM6.15778 5.14124L6.91416 5.58116L6.92031 5.57058L6.92616 5.55983L6.15778 5.14124ZM5.73081 4.28099V3.40599H4.85581V4.28099H5.73081ZM6.40685 4.28099L7.27814 4.36147L7.3664 3.40599H6.40685V4.28099ZM7.90127 10.0267L7.62621 10.8574L8.77627 11.2382V10.0267H7.90127ZM6.62034 9.1408L7.29974 8.58928L7.29244 8.58052L6.62034 9.1408ZM7.90127 6.99657H8.77627V6.12157H7.90127V6.99657ZM5.07848 6.99657V6.12157H4.20348V6.99657H5.07848ZM5.07848 7.51658H4.20348V8.39158H5.07848V7.51658ZM5.76639 7.51658L6.53926 7.92682L7.22147 6.64158H5.76639V7.51658ZM5.07848 9.94969H4.20348V10.8247H5.07848V9.94969ZM5.73081 9.94969V10.8247H6.60581V9.94969H5.73081ZM6.10441 8.26128L6.92017 7.94479L6.15602 5.97519L5.30377 7.9083L6.10441 8.26128ZM7.24894 8.92252L6.616 9.52668L8.12394 11.1065V8.92252H7.24894ZM7.24894 7.51658H8.12394V6.64158H7.24894V7.51658ZM6.8279 8.37684L7.59553 7.95664L7.58858 7.94442L6.8279 8.37684ZM6.5729 7.51658V6.64158H5.61335L5.70161 7.59706L6.5729 7.51658ZM12.0573 7C12.0573 10.4494 9.48999 13.125 6.46615 13.125V14.875C10.5846 14.875 13.8073 11.2826 13.8073 7H12.0573ZM6.46615 0.875C9.48999 0.875 12.0573 3.5506 12.0573 7H13.8073C13.8073 2.71741 10.5846 -0.875 6.46615 -0.875V0.875ZM0.875 7C0.875 3.5506 3.44231 0.875 6.46615 0.875V-0.875C2.34768 -0.875 -0.875 2.71741 -0.875 7H0.875ZM6.46615 13.125C3.44231 13.125 0.875 10.4494 0.875 7H-0.875C-0.875 11.2826 2.34768 14.875 6.46615 14.875V13.125ZM8.17508 5.96651C7.76506 5.83141 7.37537 5.59551 7.00619 5.24843L5.80752 6.52346C6.33973 7.0238 6.94632 7.4042 7.62746 7.62861L8.17508 5.96651ZM7.02627 3.76098V6.79756H8.77627V3.76098H7.02627ZM5.07848 4.63598H7.90127V2.88598H5.07848V4.63598ZM5.95348 6.79114V3.76098H4.20348V6.79114H5.95348ZM5.74703 5.31127C5.44635 5.6565 5.13393 5.85692 4.81709 5.9561L5.33988 7.62618C6.00745 7.41721 6.58457 7.01417 7.06668 6.46062L5.74703 5.31127ZM8.12394 5.84743V4.28099H6.37394V5.84743H8.12394ZM6.05887 5.92836C6.25732 6.179 6.49227 6.39749 6.76895 6.57902L7.72894 5.11583C7.61422 5.04057 7.51708 4.9509 7.43088 4.84204L6.05887 5.92836ZM6.20061 4.19165C6.16999 4.48998 6.0881 4.75392 5.97024 4.97831L7.51951 5.79209C7.7456 5.36166 7.88906 4.88089 7.94146 4.37033L6.20061 4.19165ZM7.24894 3.40599H7.07104V5.15599H7.24894V3.40599ZM6.35342 6.30173C6.58206 6.07018 6.77162 5.82623 6.91416 5.58116L5.40141 4.70133C5.34232 4.80293 5.24723 4.93133 5.10819 5.07213L6.35342 6.30173ZM4.85581 4.28099V5.68693H6.60581V4.28099H4.85581ZM6.40685 3.40599H5.73081V5.15599H6.40685V3.40599ZM6.92616 5.55983C7.12728 5.19065 7.23914 4.78365 7.27814 4.36147L5.53556 4.2005C5.51526 4.42031 5.46107 4.59109 5.3894 4.72266L6.92616 5.55983ZM8.17633 9.19609C7.8299 9.08138 7.53763 8.88245 7.29968 8.58933L5.941 9.69226C6.39095 10.2466 6.9645 10.6383 7.62621 10.8574L8.17633 9.19609ZM7.02627 6.99657V10.0267H8.77627V6.99657H7.02627ZM5.07848 7.87157H7.90127V6.12157H5.07848V7.87157ZM5.95348 7.51658V6.99657H4.20348V7.51658H5.95348ZM5.76639 6.64158H5.07848V8.39158H5.76639V6.64158ZM5.95348 9.68648C5.95348 9.3118 6.10942 8.73661 6.53926 7.92682L4.99352 7.10634C4.5101 8.01707 4.20348 8.89275 4.20348 9.68648H5.95348ZM5.95348 9.94969V9.68648H4.20348V9.94969H5.95348ZM5.73081 9.07469H5.07848V10.8247H5.73081V9.07469ZM4.85581 9.68648V9.94969H6.60581V9.68648H4.85581ZM5.30377 7.9083C5.03133 8.52625 4.85581 9.13554 4.85581 9.68648H6.60581C6.60581 9.47988 6.67935 9.1262 6.90505 8.61426L5.30377 7.9083ZM7.29244 8.58052C7.1359 8.39274 7.01156 8.18036 6.92017 7.94479L5.28865 8.57777C5.44633 8.98419 5.66594 9.36242 5.94824 9.70107L7.29244 8.58052ZM8.12394 8.92252V7.51658H6.37394V8.92252H8.12394ZM6.06037 8.79698C6.20639 9.06374 6.40544 9.30609 6.616 9.52668L7.88189 8.31836C7.72477 8.15376 7.63917 8.03661 7.59543 7.95669L6.06037 8.79698ZM5.70161 7.59706C5.74059 8.01906 5.85303 8.43246 6.06721 8.80925L7.58858 7.94442C7.51812 7.82047 7.46451 7.65608 7.44419 7.4361L5.70161 7.59706ZM7.24894 6.64158H6.5729V8.39158H7.24894V6.64158Z" fill="white" mask="url(#path-1-inside-1_42_1036)"/>
</svg>
