<svg width="229" height="15" viewBox="0 0 229 15" fill="none" xmlns="http://www.w3.org/2000/svg">
<path d="M7.50728 14.4525C9.81566 14.4525 11.7828 13.6295 13.0876 12.104L11.4014 10.4981C10.3777 11.6222 9.11311 12.1642 7.64779 12.1642C4.73721 12.1642 2.62955 10.1168 2.62955 7.22626C2.62955 4.33575 4.73721 2.28831 7.64779 2.28831C9.11311 2.28831 10.3777 2.83028 11.4014 3.9343L13.0876 2.34853C11.7828 0.82299 9.81566 0 7.52735 0C3.21167 0 0 3.03101 0 7.22626C0 11.4215 3.21167 14.4525 7.50728 14.4525Z" fill="white"/>
<path d="M31.6061 14.2518L28.3743 9.63501C30.2813 8.89231 31.3652 7.32662 31.3652 5.19889C31.3652 2.08759 29.0769 0.200729 25.3835 0.200729H19.6025V14.2518H22.212V10.1569H25.3835C25.5641 10.1569 25.7448 10.1569 25.9254 10.1368L28.7959 14.2518H31.6061ZM28.7357 5.19889C28.7357 6.96531 27.5514 8.0091 25.263 8.0091H22.212V2.40875H25.263C27.5514 2.40875 28.7357 3.43247 28.7357 5.19889Z" fill="white"/>
<path d="M40.9088 12.0638V8.18976H47.6934V6.04195H40.9088V2.38868H48.5566V0.200729H38.2993V14.2518H48.8376V12.0638H40.9088Z" fill="white"/>
<path d="M66.2794 14.2518H69.0093L62.6663 0.200729H60.0969L53.774 14.2518H56.4637L58.732 8.95253L61.3615 2.81021L64.0112 8.95253L66.2794 14.2518Z" fill="white"/>
<path d="M76.9555 14.2518H79.565V2.40875H84.2219V0.200729H72.2986V2.40875H76.9555V14.2518Z" fill="white"/>
<path d="M92.8044 12.0638V8.18976H99.589V6.04195H92.8044V2.38868H100.452V0.200729H90.1949V14.2518H100.733V12.0638H92.8044Z" fill="white"/>
<path d="M123 0.200729H117.219V14.2518H119.828V10.197H123C126.693 10.197 128.982 8.29012 128.982 5.19889C128.982 2.08759 126.693 0.200729 123 0.200729ZM122.879 7.98903H119.828V2.40875H122.879C125.168 2.40875 126.352 3.43247 126.352 5.19889C126.352 6.96531 125.168 7.98903 122.879 7.98903Z" fill="white"/>
<path d="M147.606 14.2518L144.374 9.63501C146.281 8.89231 147.365 7.32662 147.365 5.19889C147.365 2.08759 145.076 0.200729 141.383 0.200729H135.602V14.2518H138.212V10.1569H141.383C141.564 10.1569 141.744 10.1569 141.925 10.1368L144.795 14.2518H147.606ZM144.735 5.19889C144.735 6.96531 143.551 8.0091 141.263 8.0091H138.212V2.40875H141.263C143.551 2.40875 144.735 3.43247 144.735 5.19889Z" fill="white"/>
<path d="M160.863 14.4525C165.219 14.4525 168.43 11.4014 168.43 7.22626C168.43 3.05109 165.219 0 160.863 0C156.507 0 153.295 3.07116 153.295 7.22626C153.295 11.3814 156.507 14.4525 160.863 14.4525ZM160.863 12.1642C158.032 12.1642 155.925 10.0967 155.925 7.22626C155.925 4.35583 158.032 2.28831 160.863 2.28831C163.693 2.28831 165.801 4.35583 165.801 7.22626C165.801 10.0967 163.693 12.1642 160.863 12.1642Z" fill="white"/>
<path d="M185.468 2.38868V0.200729H175.211V14.2518H177.82V8.87224H184.605V6.66421H177.82V2.38868H185.468Z" fill="white"/>
<path d="M192.006 14.2518H194.616V0.200729H192.006V14.2518Z" fill="white"/>
<path d="M202.431 14.2518H212.387V12.0438H205.04V0.200729H202.431V14.2518Z" fill="white"/>
<path d="M221.071 12.0638V8.18976H227.856V6.04195H221.071V2.38868H228.719V0.200729H218.462V14.2518H229V12.0638H221.071Z" fill="white"/>
</svg>
